<mxfile host="app.diagrams.net" modified="2024-04-28T05:51:54.646Z" agent="Mozilla/5.0 (Macintosh; Intel Mac OS X 10_15_7) AppleWebKit/537.36 (KHTML, like Gecko) Chrome/124.0.0.0 Safari/537.36" etag="_inYdQiCR9zv5v3kQ_-W" version="24.3.1" type="google">
  <diagram id="R2lEEEUBdFMjLlhIrx00" name="Page-1">
    <mxGraphModel grid="1" page="1" gridSize="10" guides="1" tooltips="1" connect="1" arrows="1" fold="1" pageScale="1" pageWidth="850" pageHeight="1100" math="0" shadow="0" extFonts="Permanent Marker^https://fonts.googleapis.com/css?family=Permanent+Marker">
      <root>
        <mxCell id="0" />
        <mxCell id="1" parent="0" />
        <mxCell id="JqxN5sQ6XVoUeLbhJtJK-3" value="Users" style="whiteSpace=wrap;html=1;align=center;" vertex="1" parent="1">
          <mxGeometry x="200" y="300" width="100" height="40" as="geometry" />
        </mxCell>
        <mxCell id="JqxN5sQ6XVoUeLbhJtJK-4" value="&lt;u&gt;id&lt;/u&gt;" style="ellipse;whiteSpace=wrap;html=1;align=center;" vertex="1" parent="1">
          <mxGeometry x="40" y="250" width="100" height="40" as="geometry" />
        </mxCell>
        <mxCell id="JqxN5sQ6XVoUeLbhJtJK-5" value="dispaly_name" style="ellipse;whiteSpace=wrap;html=1;align=center;" vertex="1" parent="1">
          <mxGeometry x="40" y="300" width="100" height="40" as="geometry" />
        </mxCell>
        <mxCell id="JqxN5sQ6XVoUeLbhJtJK-6" value="location" style="ellipse;whiteSpace=wrap;html=1;align=center;" vertex="1" parent="1">
          <mxGeometry x="40" y="360" width="100" height="40" as="geometry" />
        </mxCell>
        <mxCell id="JqxN5sQ6XVoUeLbhJtJK-9" value="" style="endArrow=none;html=1;rounded=0;exitX=1;exitY=0.5;exitDx=0;exitDy=0;entryX=0;entryY=0.25;entryDx=0;entryDy=0;" edge="1" parent="1" source="JqxN5sQ6XVoUeLbhJtJK-4" target="JqxN5sQ6XVoUeLbhJtJK-3">
          <mxGeometry relative="1" as="geometry">
            <mxPoint x="350" y="430" as="sourcePoint" />
            <mxPoint x="510" y="430" as="targetPoint" />
          </mxGeometry>
        </mxCell>
        <mxCell id="JqxN5sQ6XVoUeLbhJtJK-10" value="" style="endArrow=none;html=1;rounded=0;exitX=1;exitY=0.5;exitDx=0;exitDy=0;entryX=0;entryY=0.5;entryDx=0;entryDy=0;" edge="1" parent="1" source="JqxN5sQ6XVoUeLbhJtJK-5" target="JqxN5sQ6XVoUeLbhJtJK-3">
          <mxGeometry relative="1" as="geometry">
            <mxPoint x="350" y="430" as="sourcePoint" />
            <mxPoint x="510" y="430" as="targetPoint" />
          </mxGeometry>
        </mxCell>
        <mxCell id="JqxN5sQ6XVoUeLbhJtJK-11" value="" style="endArrow=none;html=1;rounded=0;exitX=1;exitY=0.5;exitDx=0;exitDy=0;entryX=0;entryY=0.75;entryDx=0;entryDy=0;" edge="1" parent="1" source="JqxN5sQ6XVoUeLbhJtJK-6" target="JqxN5sQ6XVoUeLbhJtJK-3">
          <mxGeometry relative="1" as="geometry">
            <mxPoint x="350" y="430" as="sourcePoint" />
            <mxPoint x="510" y="430" as="targetPoint" />
          </mxGeometry>
        </mxCell>
        <mxCell id="JqxN5sQ6XVoUeLbhJtJK-17" value="Post_Questions" style="rounded=1;arcSize=10;whiteSpace=wrap;html=1;align=center;" vertex="1" parent="1">
          <mxGeometry x="510" y="300" width="100" height="40" as="geometry" />
        </mxCell>
        <mxCell id="JqxN5sQ6XVoUeLbhJtJK-18" value="ask_question" style="shape=rhombus;perimeter=rhombusPerimeter;whiteSpace=wrap;html=1;align=center;" vertex="1" parent="1">
          <mxGeometry x="340" y="290" width="120" height="60" as="geometry" />
        </mxCell>
        <mxCell id="JqxN5sQ6XVoUeLbhJtJK-20" value="" style="endArrow=none;html=1;rounded=0;exitX=1;exitY=0.5;exitDx=0;exitDy=0;" edge="1" parent="1" source="JqxN5sQ6XVoUeLbhJtJK-3" target="JqxN5sQ6XVoUeLbhJtJK-18">
          <mxGeometry relative="1" as="geometry">
            <mxPoint x="510" y="580" as="sourcePoint" />
            <mxPoint x="670" y="580" as="targetPoint" />
          </mxGeometry>
        </mxCell>
        <mxCell id="JqxN5sQ6XVoUeLbhJtJK-21" value="" style="endArrow=none;html=1;rounded=0;exitX=1;exitY=0.5;exitDx=0;exitDy=0;entryX=0;entryY=0.5;entryDx=0;entryDy=0;" edge="1" parent="1" source="JqxN5sQ6XVoUeLbhJtJK-18" target="JqxN5sQ6XVoUeLbhJtJK-17">
          <mxGeometry relative="1" as="geometry">
            <mxPoint x="300" y="330" as="sourcePoint" />
            <mxPoint x="390" y="330" as="targetPoint" />
          </mxGeometry>
        </mxCell>
        <mxCell id="JqxN5sQ6XVoUeLbhJtJK-22" value="views" style="ellipse;whiteSpace=wrap;html=1;align=center;" vertex="1" parent="1">
          <mxGeometry x="40" y="410" width="100" height="40" as="geometry" />
        </mxCell>
        <mxCell id="JqxN5sQ6XVoUeLbhJtJK-24" value="repetation" style="ellipse;whiteSpace=wrap;html=1;align=center;" vertex="1" parent="1">
          <mxGeometry x="40" y="460" width="100" height="40" as="geometry" />
        </mxCell>
        <mxCell id="JqxN5sQ6XVoUeLbhJtJK-25" value="" style="endArrow=none;html=1;rounded=0;exitX=1;exitY=0.5;exitDx=0;exitDy=0;" edge="1" parent="1" source="JqxN5sQ6XVoUeLbhJtJK-22">
          <mxGeometry relative="1" as="geometry">
            <mxPoint x="150" y="390" as="sourcePoint" />
            <mxPoint x="210" y="340" as="targetPoint" />
          </mxGeometry>
        </mxCell>
        <mxCell id="JqxN5sQ6XVoUeLbhJtJK-26" value="" style="endArrow=none;html=1;rounded=0;exitX=1;exitY=0.5;exitDx=0;exitDy=0;entryX=0.25;entryY=1;entryDx=0;entryDy=0;" edge="1" parent="1" source="JqxN5sQ6XVoUeLbhJtJK-24" target="JqxN5sQ6XVoUeLbhJtJK-3">
          <mxGeometry relative="1" as="geometry">
            <mxPoint x="160" y="400" as="sourcePoint" />
            <mxPoint x="220" y="350" as="targetPoint" />
          </mxGeometry>
        </mxCell>
        <mxCell id="JqxN5sQ6XVoUeLbhJtJK-27" value="Post_Answers" style="rounded=1;arcSize=10;whiteSpace=wrap;html=1;align=center;" vertex="1" parent="1">
          <mxGeometry x="510" y="520" width="100" height="40" as="geometry" />
        </mxCell>
        <mxCell id="JqxN5sQ6XVoUeLbhJtJK-28" value="Comments" style="rounded=1;arcSize=10;whiteSpace=wrap;html=1;align=center;" vertex="1" parent="1">
          <mxGeometry x="510" y="730" width="100" height="40" as="geometry" />
        </mxCell>
        <mxCell id="JqxN5sQ6XVoUeLbhJtJK-29" value="&lt;u&gt;id&lt;/u&gt;" style="ellipse;whiteSpace=wrap;html=1;align=center;" vertex="1" parent="1">
          <mxGeometry x="710" y="160" width="100" height="40" as="geometry" />
        </mxCell>
        <mxCell id="JqxN5sQ6XVoUeLbhJtJK-30" value="ans_question" style="shape=rhombus;perimeter=rhombusPerimeter;whiteSpace=wrap;html=1;align=center;" vertex="1" parent="1">
          <mxGeometry x="350" y="510" width="120" height="60" as="geometry" />
        </mxCell>
        <mxCell id="JqxN5sQ6XVoUeLbhJtJK-31" value="post" style="shape=rhombus;perimeter=rhombusPerimeter;whiteSpace=wrap;html=1;align=center;" vertex="1" parent="1">
          <mxGeometry x="350" y="720" width="120" height="60" as="geometry" />
        </mxCell>
        <mxCell id="JqxN5sQ6XVoUeLbhJtJK-32" value="ans_for" style="shape=rhombus;perimeter=rhombusPerimeter;whiteSpace=wrap;html=1;align=center;" vertex="1" parent="1">
          <mxGeometry x="500" y="390" width="120" height="60" as="geometry" />
        </mxCell>
        <mxCell id="JqxN5sQ6XVoUeLbhJtJK-33" value="comment_on" style="shape=rhombus;perimeter=rhombusPerimeter;whiteSpace=wrap;html=1;align=center;" vertex="1" parent="1">
          <mxGeometry x="500" y="600" width="120" height="60" as="geometry" />
        </mxCell>
        <mxCell id="JqxN5sQ6XVoUeLbhJtJK-34" value="" style="endArrow=none;html=1;rounded=0;exitX=1;exitY=0.75;exitDx=0;exitDy=0;entryX=0;entryY=0.5;entryDx=0;entryDy=0;" edge="1" parent="1" source="JqxN5sQ6XVoUeLbhJtJK-3" target="JqxN5sQ6XVoUeLbhJtJK-30">
          <mxGeometry relative="1" as="geometry">
            <mxPoint x="270" y="340" as="sourcePoint" />
            <mxPoint x="400" y="570" as="targetPoint" />
            <Array as="points">
              <mxPoint x="300" y="540" />
            </Array>
          </mxGeometry>
        </mxCell>
        <mxCell id="JqxN5sQ6XVoUeLbhJtJK-37" value="&lt;u&gt;id&lt;/u&gt;" style="ellipse;whiteSpace=wrap;html=1;align=center;" vertex="1" parent="1">
          <mxGeometry x="710" y="430" width="100" height="40" as="geometry" />
        </mxCell>
        <mxCell id="JqxN5sQ6XVoUeLbhJtJK-38" value="&lt;u&gt;id&lt;/u&gt;" style="ellipse;whiteSpace=wrap;html=1;align=center;" vertex="1" parent="1">
          <mxGeometry x="700" y="660" width="100" height="40" as="geometry" />
        </mxCell>
        <mxCell id="JqxN5sQ6XVoUeLbhJtJK-39" value="" style="endArrow=none;html=1;rounded=0;entryX=0;entryY=0.5;entryDx=0;entryDy=0;exitX=1;exitY=0.25;exitDx=0;exitDy=0;" edge="1" parent="1" source="JqxN5sQ6XVoUeLbhJtJK-27" target="JqxN5sQ6XVoUeLbhJtJK-37">
          <mxGeometry relative="1" as="geometry">
            <mxPoint x="420" y="580" as="sourcePoint" />
            <mxPoint x="580" y="580" as="targetPoint" />
          </mxGeometry>
        </mxCell>
        <mxCell id="JqxN5sQ6XVoUeLbhJtJK-40" value="" style="endArrow=none;html=1;rounded=0;entryX=0;entryY=0.5;entryDx=0;entryDy=0;exitX=1;exitY=0.25;exitDx=0;exitDy=0;" edge="1" parent="1" source="JqxN5sQ6XVoUeLbhJtJK-28">
          <mxGeometry relative="1" as="geometry">
            <mxPoint x="620" y="420" as="sourcePoint" />
            <mxPoint x="700.0000000000082" y="680" as="targetPoint" />
          </mxGeometry>
        </mxCell>
        <mxCell id="JqxN5sQ6XVoUeLbhJtJK-41" value="" style="endArrow=none;html=1;rounded=0;entryX=0;entryY=0.5;entryDx=0;entryDy=0;exitX=1;exitY=0.25;exitDx=0;exitDy=0;" edge="1" parent="1" source="JqxN5sQ6XVoUeLbhJtJK-17" target="JqxN5sQ6XVoUeLbhJtJK-29">
          <mxGeometry relative="1" as="geometry">
            <mxPoint x="625" y="900" as="sourcePoint" />
            <mxPoint x="710" y="840" as="targetPoint" />
          </mxGeometry>
        </mxCell>
        <mxCell id="JqxN5sQ6XVoUeLbhJtJK-42" value="" style="endArrow=none;html=1;rounded=0;exitX=1;exitY=0.5;exitDx=0;exitDy=0;entryX=0;entryY=0.5;entryDx=0;entryDy=0;" edge="1" parent="1" source="JqxN5sQ6XVoUeLbhJtJK-30" target="JqxN5sQ6XVoUeLbhJtJK-27">
          <mxGeometry relative="1" as="geometry">
            <mxPoint x="510" y="300" as="sourcePoint" />
            <mxPoint x="600" y="300" as="targetPoint" />
          </mxGeometry>
        </mxCell>
        <mxCell id="JqxN5sQ6XVoUeLbhJtJK-43" value="" style="endArrow=none;html=1;rounded=0;exitX=1;exitY=0.5;exitDx=0;exitDy=0;entryX=0;entryY=0.5;entryDx=0;entryDy=0;" edge="1" parent="1" source="JqxN5sQ6XVoUeLbhJtJK-31" target="JqxN5sQ6XVoUeLbhJtJK-28">
          <mxGeometry relative="1" as="geometry">
            <mxPoint x="520" y="430" as="sourcePoint" />
            <mxPoint x="600" y="430" as="targetPoint" />
          </mxGeometry>
        </mxCell>
        <mxCell id="JqxN5sQ6XVoUeLbhJtJK-44" value="" style="endArrow=none;html=1;rounded=0;exitX=0.5;exitY=0;exitDx=0;exitDy=0;entryX=0.5;entryY=1;entryDx=0;entryDy=0;" edge="1" parent="1" source="JqxN5sQ6XVoUeLbhJtJK-33" target="JqxN5sQ6XVoUeLbhJtJK-27">
          <mxGeometry relative="1" as="geometry">
            <mxPoint x="440" y="550" as="sourcePoint" />
            <mxPoint x="520" y="550" as="targetPoint" />
          </mxGeometry>
        </mxCell>
        <mxCell id="JqxN5sQ6XVoUeLbhJtJK-45" value="" style="endArrow=none;html=1;rounded=0;entryX=0.5;entryY=0;entryDx=0;entryDy=0;exitX=0.5;exitY=1;exitDx=0;exitDy=0;" edge="1" parent="1" source="JqxN5sQ6XVoUeLbhJtJK-32" target="JqxN5sQ6XVoUeLbhJtJK-27">
          <mxGeometry relative="1" as="geometry">
            <mxPoint x="560" y="470" as="sourcePoint" />
            <mxPoint x="560" y="520" as="targetPoint" />
          </mxGeometry>
        </mxCell>
        <mxCell id="JqxN5sQ6XVoUeLbhJtJK-48" value="" style="endArrow=none;html=1;rounded=0;exitX=0.5;exitY=1;exitDx=0;exitDy=0;entryX=0.5;entryY=0;entryDx=0;entryDy=0;" edge="1" parent="1" source="JqxN5sQ6XVoUeLbhJtJK-17" target="JqxN5sQ6XVoUeLbhJtJK-32">
          <mxGeometry relative="1" as="geometry">
            <mxPoint x="570" y="480" as="sourcePoint" />
            <mxPoint x="570" y="560" as="targetPoint" />
          </mxGeometry>
        </mxCell>
        <mxCell id="JqxN5sQ6XVoUeLbhJtJK-49" value="" style="endArrow=none;html=1;rounded=0;exitX=0.5;exitY=0;exitDx=0;exitDy=0;entryX=0.5;entryY=1;entryDx=0;entryDy=0;" edge="1" parent="1" source="JqxN5sQ6XVoUeLbhJtJK-28" target="JqxN5sQ6XVoUeLbhJtJK-33">
          <mxGeometry relative="1" as="geometry">
            <mxPoint x="570" y="610" as="sourcePoint" />
            <mxPoint x="570" y="510" as="targetPoint" />
          </mxGeometry>
        </mxCell>
        <mxCell id="JqxN5sQ6XVoUeLbhJtJK-50" value="owner_id" style="ellipse;whiteSpace=wrap;html=1;align=center;" vertex="1" parent="1">
          <mxGeometry x="710" y="210" width="100" height="40" as="geometry" />
        </mxCell>
        <mxCell id="JqxN5sQ6XVoUeLbhJtJK-51" value="title" style="ellipse;whiteSpace=wrap;html=1;align=center;" vertex="1" parent="1">
          <mxGeometry x="710" y="260" width="100" height="40" as="geometry" />
        </mxCell>
        <mxCell id="JqxN5sQ6XVoUeLbhJtJK-52" value="body" style="ellipse;whiteSpace=wrap;html=1;align=center;" vertex="1" parent="1">
          <mxGeometry x="710" y="310" width="100" height="40" as="geometry" />
        </mxCell>
        <mxCell id="JqxN5sQ6XVoUeLbhJtJK-53" value="answer_count" style="ellipse;whiteSpace=wrap;html=1;align=center;" vertex="1" parent="1">
          <mxGeometry x="710" y="360" width="100" height="40" as="geometry" />
        </mxCell>
        <mxCell id="JqxN5sQ6XVoUeLbhJtJK-54" value="text" style="ellipse;whiteSpace=wrap;html=1;align=center;" vertex="1" parent="1">
          <mxGeometry x="700" y="710" width="100" height="40" as="geometry" />
        </mxCell>
        <mxCell id="JqxN5sQ6XVoUeLbhJtJK-55" value="post_id" style="ellipse;whiteSpace=wrap;html=1;align=center;" vertex="1" parent="1">
          <mxGeometry x="700" y="760" width="100" height="40" as="geometry" />
        </mxCell>
        <mxCell id="JqxN5sQ6XVoUeLbhJtJK-56" value="uer_id" style="ellipse;whiteSpace=wrap;html=1;align=center;" vertex="1" parent="1">
          <mxGeometry x="700" y="810" width="100" height="40" as="geometry" />
        </mxCell>
        <mxCell id="JqxN5sQ6XVoUeLbhJtJK-57" value="score" style="ellipse;whiteSpace=wrap;html=1;align=center;" vertex="1" parent="1">
          <mxGeometry x="700" y="860" width="100" height="40" as="geometry" />
        </mxCell>
        <mxCell id="TgTGQRHXUyLTKSAbJfGr-1" value="" style="endArrow=none;html=1;rounded=0;entryX=0;entryY=0.5;entryDx=0;entryDy=0;exitX=1;exitY=0.5;exitDx=0;exitDy=0;" edge="1" parent="1" source="JqxN5sQ6XVoUeLbhJtJK-28" target="JqxN5sQ6XVoUeLbhJtJK-54">
          <mxGeometry relative="1" as="geometry">
            <mxPoint x="620" y="750" as="sourcePoint" />
            <mxPoint x="710.0000000000082" y="690" as="targetPoint" />
          </mxGeometry>
        </mxCell>
        <mxCell id="TgTGQRHXUyLTKSAbJfGr-2" value="" style="endArrow=none;html=1;rounded=0;entryX=0;entryY=0.5;entryDx=0;entryDy=0;exitX=1;exitY=0.75;exitDx=0;exitDy=0;" edge="1" parent="1" source="JqxN5sQ6XVoUeLbhJtJK-28" target="JqxN5sQ6XVoUeLbhJtJK-55">
          <mxGeometry relative="1" as="geometry">
            <mxPoint x="620" y="760" as="sourcePoint" />
            <mxPoint x="710" y="740" as="targetPoint" />
          </mxGeometry>
        </mxCell>
        <mxCell id="TgTGQRHXUyLTKSAbJfGr-3" value="" style="endArrow=none;html=1;rounded=0;entryX=0;entryY=0.5;entryDx=0;entryDy=0;exitX=1;exitY=1;exitDx=0;exitDy=0;" edge="1" parent="1" source="JqxN5sQ6XVoUeLbhJtJK-28" target="JqxN5sQ6XVoUeLbhJtJK-56">
          <mxGeometry relative="1" as="geometry">
            <mxPoint x="620" y="770" as="sourcePoint" />
            <mxPoint x="710" y="790" as="targetPoint" />
          </mxGeometry>
        </mxCell>
        <mxCell id="TgTGQRHXUyLTKSAbJfGr-4" value="" style="endArrow=none;html=1;rounded=0;entryX=0;entryY=0.5;entryDx=0;entryDy=0;exitX=0.75;exitY=1;exitDx=0;exitDy=0;" edge="1" parent="1" source="JqxN5sQ6XVoUeLbhJtJK-28" target="JqxN5sQ6XVoUeLbhJtJK-57">
          <mxGeometry relative="1" as="geometry">
            <mxPoint x="620" y="780" as="sourcePoint" />
            <mxPoint x="710" y="840" as="targetPoint" />
          </mxGeometry>
        </mxCell>
        <mxCell id="TgTGQRHXUyLTKSAbJfGr-5" value="" style="endArrow=none;html=1;rounded=0;entryX=0;entryY=0.5;entryDx=0;entryDy=0;exitX=1;exitY=0.5;exitDx=0;exitDy=0;" edge="1" parent="1" source="JqxN5sQ6XVoUeLbhJtJK-17" target="JqxN5sQ6XVoUeLbhJtJK-50">
          <mxGeometry relative="1" as="geometry">
            <mxPoint x="620" y="320" as="sourcePoint" />
            <mxPoint x="720" y="190" as="targetPoint" />
          </mxGeometry>
        </mxCell>
        <mxCell id="TgTGQRHXUyLTKSAbJfGr-6" value="" style="endArrow=none;html=1;rounded=0;entryX=0;entryY=0.5;entryDx=0;entryDy=0;exitX=1;exitY=0.75;exitDx=0;exitDy=0;" edge="1" parent="1" source="JqxN5sQ6XVoUeLbhJtJK-17" target="JqxN5sQ6XVoUeLbhJtJK-51">
          <mxGeometry relative="1" as="geometry">
            <mxPoint x="630" y="330" as="sourcePoint" />
            <mxPoint x="730" y="200" as="targetPoint" />
          </mxGeometry>
        </mxCell>
        <mxCell id="TgTGQRHXUyLTKSAbJfGr-7" value="" style="endArrow=none;html=1;rounded=0;entryX=0;entryY=0.5;entryDx=0;entryDy=0;" edge="1" parent="1" target="JqxN5sQ6XVoUeLbhJtJK-52">
          <mxGeometry relative="1" as="geometry">
            <mxPoint x="610" y="330" as="sourcePoint" />
            <mxPoint x="740" y="210" as="targetPoint" />
          </mxGeometry>
        </mxCell>
        <mxCell id="TgTGQRHXUyLTKSAbJfGr-8" value="" style="endArrow=none;html=1;rounded=0;entryX=0;entryY=0.5;entryDx=0;entryDy=0;exitX=0.75;exitY=1;exitDx=0;exitDy=0;" edge="1" parent="1" source="JqxN5sQ6XVoUeLbhJtJK-17" target="JqxN5sQ6XVoUeLbhJtJK-53">
          <mxGeometry relative="1" as="geometry">
            <mxPoint x="650" y="350" as="sourcePoint" />
            <mxPoint x="750" y="220" as="targetPoint" />
          </mxGeometry>
        </mxCell>
        <mxCell id="TgTGQRHXUyLTKSAbJfGr-10" value="body" style="ellipse;whiteSpace=wrap;html=1;align=center;" vertex="1" parent="1">
          <mxGeometry x="710" y="560" width="100" height="40" as="geometry" />
        </mxCell>
        <mxCell id="TgTGQRHXUyLTKSAbJfGr-11" value="parent_id" style="ellipse;whiteSpace=wrap;html=1;align=center;" vertex="1" parent="1">
          <mxGeometry x="710" y="520" width="100" height="40" as="geometry" />
        </mxCell>
        <mxCell id="TgTGQRHXUyLTKSAbJfGr-12" style="edgeStyle=orthogonalEdgeStyle;rounded=0;orthogonalLoop=1;jettySize=auto;html=1;exitX=0.5;exitY=1;exitDx=0;exitDy=0;" edge="1" parent="1" source="TgTGQRHXUyLTKSAbJfGr-10" target="TgTGQRHXUyLTKSAbJfGr-10">
          <mxGeometry relative="1" as="geometry" />
        </mxCell>
        <mxCell id="TgTGQRHXUyLTKSAbJfGr-13" value="score" style="ellipse;whiteSpace=wrap;html=1;align=center;" vertex="1" parent="1">
          <mxGeometry x="710" y="600" width="100" height="40" as="geometry" />
        </mxCell>
        <mxCell id="TgTGQRHXUyLTKSAbJfGr-14" value="" style="endArrow=none;html=1;rounded=0;entryX=0;entryY=0.5;entryDx=0;entryDy=0;exitX=1;exitY=0.5;exitDx=0;exitDy=0;" edge="1" parent="1" source="JqxN5sQ6XVoUeLbhJtJK-27" target="TgTGQRHXUyLTKSAbJfGr-11">
          <mxGeometry relative="1" as="geometry">
            <mxPoint x="595" y="320" as="sourcePoint" />
            <mxPoint x="720" y="360" as="targetPoint" />
          </mxGeometry>
        </mxCell>
        <mxCell id="TgTGQRHXUyLTKSAbJfGr-15" value="" style="endArrow=none;html=1;rounded=0;entryX=0;entryY=0.5;entryDx=0;entryDy=0;exitX=1;exitY=0.75;exitDx=0;exitDy=0;" edge="1" parent="1" source="JqxN5sQ6XVoUeLbhJtJK-27" target="TgTGQRHXUyLTKSAbJfGr-10">
          <mxGeometry relative="1" as="geometry">
            <mxPoint x="620" y="550" as="sourcePoint" />
            <mxPoint x="720" y="550" as="targetPoint" />
          </mxGeometry>
        </mxCell>
        <mxCell id="TgTGQRHXUyLTKSAbJfGr-16" value="" style="endArrow=none;html=1;rounded=0;entryX=0;entryY=0.5;entryDx=0;entryDy=0;exitX=0.75;exitY=1;exitDx=0;exitDy=0;" edge="1" parent="1" source="JqxN5sQ6XVoUeLbhJtJK-27" target="TgTGQRHXUyLTKSAbJfGr-13">
          <mxGeometry relative="1" as="geometry">
            <mxPoint x="630" y="560" as="sourcePoint" />
            <mxPoint x="730" y="560" as="targetPoint" />
          </mxGeometry>
        </mxCell>
        <mxCell id="TgTGQRHXUyLTKSAbJfGr-17" value="" style="endArrow=none;html=1;rounded=0;exitX=0.75;exitY=1;exitDx=0;exitDy=0;entryX=0;entryY=0.5;entryDx=0;entryDy=0;" edge="1" parent="1" source="JqxN5sQ6XVoUeLbhJtJK-3" target="JqxN5sQ6XVoUeLbhJtJK-31">
          <mxGeometry relative="1" as="geometry">
            <mxPoint x="285" y="350" as="sourcePoint" />
            <mxPoint x="410" y="580" as="targetPoint" />
            <Array as="points">
              <mxPoint x="280" y="750" />
            </Array>
          </mxGeometry>
        </mxCell>
        <mxCell id="ZdY06auwmQ2HEn598mcp-2" value="last_editor_user_id" style="ellipse;whiteSpace=wrap;html=1;align=center;" vertex="1" parent="1">
          <mxGeometry x="710" y="470" width="100" height="40" as="geometry" />
        </mxCell>
        <mxCell id="ZdY06auwmQ2HEn598mcp-3" value="" style="endArrow=none;html=1;rounded=0;entryX=0;entryY=0.5;entryDx=0;entryDy=0;exitX=1;exitY=0.25;exitDx=0;exitDy=0;" edge="1" parent="1" source="JqxN5sQ6XVoUeLbhJtJK-27" target="ZdY06auwmQ2HEn598mcp-2">
          <mxGeometry relative="1" as="geometry">
            <mxPoint x="620" y="540" as="sourcePoint" />
            <mxPoint x="720" y="460" as="targetPoint" />
          </mxGeometry>
        </mxCell>
        <mxCell id="ZdY06auwmQ2HEn598mcp-4" value="badges" style="whiteSpace=wrap;html=1;align=center;" vertex="1" parent="1">
          <mxGeometry x="160" y="780" width="100" height="40" as="geometry" />
        </mxCell>
        <mxCell id="ZdY06auwmQ2HEn598mcp-5" value="id" style="ellipse;whiteSpace=wrap;html=1;align=center;" vertex="1" parent="1">
          <mxGeometry x="30" y="680" width="100" height="40" as="geometry" />
        </mxCell>
        <mxCell id="ZdY06auwmQ2HEn598mcp-6" value="name" style="ellipse;whiteSpace=wrap;html=1;align=center;" vertex="1" parent="1">
          <mxGeometry x="30" y="730" width="100" height="40" as="geometry" />
        </mxCell>
        <mxCell id="ZdY06auwmQ2HEn598mcp-7" value="date" style="ellipse;whiteSpace=wrap;html=1;align=center;" vertex="1" parent="1">
          <mxGeometry x="30" y="780" width="100" height="40" as="geometry" />
        </mxCell>
        <mxCell id="ZdY06auwmQ2HEn598mcp-8" value="user_id" style="ellipse;whiteSpace=wrap;html=1;align=center;" vertex="1" parent="1">
          <mxGeometry x="30" y="830" width="100" height="40" as="geometry" />
        </mxCell>
        <mxCell id="ZdY06auwmQ2HEn598mcp-9" value="class" style="ellipse;whiteSpace=wrap;html=1;align=center;" vertex="1" parent="1">
          <mxGeometry x="30" y="880" width="100" height="40" as="geometry" />
        </mxCell>
        <mxCell id="ZdY06auwmQ2HEn598mcp-10" value="has" style="shape=rhombus;perimeter=rhombusPerimeter;whiteSpace=wrap;html=1;align=center;" vertex="1" parent="1">
          <mxGeometry x="150" y="560" width="120" height="60" as="geometry" />
        </mxCell>
        <mxCell id="ZdY06auwmQ2HEn598mcp-11" value="" style="endArrow=none;html=1;rounded=0;exitX=0.5;exitY=0;exitDx=0;exitDy=0;" edge="1" parent="1" source="ZdY06auwmQ2HEn598mcp-10">
          <mxGeometry width="50" height="50" relative="1" as="geometry">
            <mxPoint x="210" y="720" as="sourcePoint" />
            <mxPoint x="240" y="340" as="targetPoint" />
          </mxGeometry>
        </mxCell>
        <mxCell id="ZdY06auwmQ2HEn598mcp-12" value="" style="endArrow=none;html=1;rounded=0;entryX=0.5;entryY=1;entryDx=0;entryDy=0;exitX=0.5;exitY=0;exitDx=0;exitDy=0;" edge="1" parent="1" source="ZdY06auwmQ2HEn598mcp-4" target="ZdY06auwmQ2HEn598mcp-10">
          <mxGeometry width="50" height="50" relative="1" as="geometry">
            <mxPoint x="210" y="720" as="sourcePoint" />
            <mxPoint x="260" y="670" as="targetPoint" />
          </mxGeometry>
        </mxCell>
        <mxCell id="ZdY06auwmQ2HEn598mcp-13" value="" style="endArrow=none;html=1;rounded=0;exitX=1;exitY=0.5;exitDx=0;exitDy=0;entryX=0;entryY=0;entryDx=0;entryDy=0;" edge="1" parent="1" source="ZdY06auwmQ2HEn598mcp-5" target="ZdY06auwmQ2HEn598mcp-4">
          <mxGeometry width="50" height="50" relative="1" as="geometry">
            <mxPoint x="210" y="720" as="sourcePoint" />
            <mxPoint x="260" y="670" as="targetPoint" />
          </mxGeometry>
        </mxCell>
        <mxCell id="ZdY06auwmQ2HEn598mcp-14" value="" style="endArrow=none;html=1;rounded=0;exitX=1;exitY=0.5;exitDx=0;exitDy=0;entryX=0;entryY=0.5;entryDx=0;entryDy=0;" edge="1" parent="1" source="ZdY06auwmQ2HEn598mcp-6" target="ZdY06auwmQ2HEn598mcp-4">
          <mxGeometry width="50" height="50" relative="1" as="geometry">
            <mxPoint x="140" y="710" as="sourcePoint" />
            <mxPoint x="170" y="790" as="targetPoint" />
          </mxGeometry>
        </mxCell>
        <mxCell id="ZdY06auwmQ2HEn598mcp-15" value="" style="endArrow=none;html=1;rounded=0;exitX=1;exitY=0.5;exitDx=0;exitDy=0;" edge="1" parent="1" source="ZdY06auwmQ2HEn598mcp-7">
          <mxGeometry width="50" height="50" relative="1" as="geometry">
            <mxPoint x="140" y="760" as="sourcePoint" />
            <mxPoint x="160" y="800" as="targetPoint" />
          </mxGeometry>
        </mxCell>
        <mxCell id="ZdY06auwmQ2HEn598mcp-16" value="" style="endArrow=none;html=1;rounded=0;exitX=1;exitY=0.5;exitDx=0;exitDy=0;entryX=0;entryY=0.5;entryDx=0;entryDy=0;" edge="1" parent="1" source="ZdY06auwmQ2HEn598mcp-8" target="ZdY06auwmQ2HEn598mcp-4">
          <mxGeometry width="50" height="50" relative="1" as="geometry">
            <mxPoint x="140" y="710" as="sourcePoint" />
            <mxPoint x="170" y="790" as="targetPoint" />
          </mxGeometry>
        </mxCell>
        <mxCell id="ZdY06auwmQ2HEn598mcp-17" value="" style="endArrow=none;html=1;rounded=0;exitX=1;exitY=0.5;exitDx=0;exitDy=0;" edge="1" parent="1" source="ZdY06auwmQ2HEn598mcp-9">
          <mxGeometry width="50" height="50" relative="1" as="geometry">
            <mxPoint x="140" y="860" as="sourcePoint" />
            <mxPoint x="170" y="820" as="targetPoint" />
          </mxGeometry>
        </mxCell>
      </root>
    </mxGraphModel>
  </diagram>
</mxfile>
